<mxfile host="app.diagrams.net" agent="Mozilla/5.0 (X11; Ubuntu; Linux x86_64; rv:128.0) Gecko/20100101 Firefox/128.0" version="24.7.6">
  <diagram name="Page-1" id="H4P7NE6pzufIGQPCW-qz">
    <mxGraphModel dx="1284" dy="615" grid="0" gridSize="10" guides="1" tooltips="1" connect="1" arrows="1" fold="1" page="1" pageScale="1" pageWidth="827" pageHeight="1169" background="#000000" math="0" shadow="1">
      <root>
        <mxCell id="0" />
        <mxCell id="1" parent="0" />
        <mxCell id="f0s2tuys1uaE-3mfgcDq-59" value="" style="group" parent="1" vertex="1" connectable="0">
          <mxGeometry x="18" y="675" width="47" height="65" as="geometry" />
        </mxCell>
        <mxCell id="f0s2tuys1uaE-3mfgcDq-60" value="" style="shape=note;whiteSpace=wrap;html=1;backgroundOutline=1;darkOpacity=0.05;rounded=1;size=20;strokeWidth=2;" parent="f0s2tuys1uaE-3mfgcDq-59" vertex="1">
          <mxGeometry x="2.611111111111111" width="41.77777777777778" height="65" as="geometry" />
        </mxCell>
        <mxCell id="f0s2tuys1uaE-3mfgcDq-61" value="&lt;font data-font-src=&quot;https://fonts.googleapis.com/css?family=Maven+Pro&quot; face=&quot;Maven Pro&quot; color=&quot;#ffffff&quot;&gt;&lt;b&gt;&lt;font style=&quot;font-size: 20px;&quot;&gt;Fastq&lt;/font&gt;&lt;/b&gt;&lt;/font&gt;" style="rounded=1;whiteSpace=wrap;html=1;strokeWidth=2;fillColor=#000000;" parent="f0s2tuys1uaE-3mfgcDq-59" vertex="1">
          <mxGeometry y="26" width="47" height="26" as="geometry" />
        </mxCell>
        <mxCell id="f0s2tuys1uaE-3mfgcDq-62" value="" style="endArrow=none;html=1;rounded=1;strokeWidth=2;strokeColor=#7EB2DD;entryX=1;entryY=0.5;entryDx=0;entryDy=0;" parent="1" source="f0s2tuys1uaE-3mfgcDq-63" target="f0s2tuys1uaE-3mfgcDq-61" edge="1">
          <mxGeometry width="50" height="50" relative="1" as="geometry">
            <mxPoint x="110" y="714" as="sourcePoint" />
            <mxPoint x="328" y="307" as="targetPoint" />
          </mxGeometry>
        </mxCell>
        <mxCell id="f0s2tuys1uaE-3mfgcDq-64" value="" style="endArrow=none;html=1;rounded=1;strokeWidth=2;strokeColor=#7EB2DD;entryX=1;entryY=0.5;entryDx=0;entryDy=0;" parent="1" target="f0s2tuys1uaE-3mfgcDq-63" edge="1">
          <mxGeometry width="50" height="50" relative="1" as="geometry">
            <mxPoint x="110" y="714" as="sourcePoint" />
            <mxPoint x="65" y="714" as="targetPoint" />
          </mxGeometry>
        </mxCell>
        <mxCell id="f0s2tuys1uaE-3mfgcDq-63" value="" style="ellipse;whiteSpace=wrap;html=1;aspect=fixed;rounded=1;rotation=90;strokeWidth=2;fillColor=#3584e4;strokeColor=#62A0EA;shadow=1;" parent="1" vertex="1">
          <mxGeometry x="107" y="706" width="16" height="16" as="geometry" />
        </mxCell>
        <mxCell id="f0s2tuys1uaE-3mfgcDq-66" value="&lt;font style=&quot;font-size: 14px;&quot; color=&quot;#ffffff&quot;&gt;Adapter removal&lt;/font&gt;" style="text;strokeColor=none;align=center;fillColor=none;html=1;verticalAlign=middle;whiteSpace=wrap;rounded=0;" parent="1" vertex="1">
          <mxGeometry x="81.5" y="665" width="60" height="30" as="geometry" />
        </mxCell>
        <mxCell id="f0s2tuys1uaE-3mfgcDq-67" value="" style="endArrow=none;html=1;rounded=1;strokeWidth=2;strokeColor=#7EB2DD;exitX=0.5;exitY=0;exitDx=0;exitDy=0;" parent="1" source="f0s2tuys1uaE-3mfgcDq-68" edge="1">
          <mxGeometry width="50" height="50" relative="1" as="geometry">
            <mxPoint x="138" y="718" as="sourcePoint" />
            <mxPoint x="176" y="714" as="targetPoint" />
            <Array as="points" />
          </mxGeometry>
        </mxCell>
        <mxCell id="f0s2tuys1uaE-3mfgcDq-69" value="" style="endArrow=none;html=1;rounded=1;strokeWidth=2;strokeColor=#7EB2DD;exitX=0.5;exitY=0;exitDx=0;exitDy=0;" parent="1" source="f0s2tuys1uaE-3mfgcDq-63" target="f0s2tuys1uaE-3mfgcDq-68" edge="1">
          <mxGeometry width="50" height="50" relative="1" as="geometry">
            <mxPoint x="119" y="714" as="sourcePoint" />
            <mxPoint x="176" y="714" as="targetPoint" />
            <Array as="points" />
          </mxGeometry>
        </mxCell>
        <mxCell id="f0s2tuys1uaE-3mfgcDq-70" style="edgeStyle=orthogonalEdgeStyle;rounded=0;orthogonalLoop=1;jettySize=auto;html=1;exitX=0;exitY=1;exitDx=0;exitDy=0;" parent="1" source="f0s2tuys1uaE-3mfgcDq-68" edge="1">
          <mxGeometry relative="1" as="geometry">
            <mxPoint x="234" y="724" as="targetPoint" />
          </mxGeometry>
        </mxCell>
        <mxCell id="f0s2tuys1uaE-3mfgcDq-71" style="edgeStyle=orthogonalEdgeStyle;rounded=0;orthogonalLoop=1;jettySize=auto;html=1;exitX=0;exitY=1;exitDx=0;exitDy=0;" parent="1" source="f0s2tuys1uaE-3mfgcDq-68" edge="1">
          <mxGeometry relative="1" as="geometry">
            <mxPoint x="192" y="686" as="targetPoint" />
          </mxGeometry>
        </mxCell>
        <mxCell id="f0s2tuys1uaE-3mfgcDq-68" value="" style="ellipse;whiteSpace=wrap;html=1;aspect=fixed;rounded=1;rotation=0;strokeWidth=2;fillColor=#3584e4;shadow=1;strokeColor=#62A0EA;gradientColor=none;gradientDirection=north;" parent="1" vertex="1">
          <mxGeometry x="170.5" y="706" width="16" height="16" as="geometry" />
        </mxCell>
        <mxCell id="f0s2tuys1uaE-3mfgcDq-74" value="&lt;font style=&quot;font-size: 14px;&quot; color=&quot;#ffffff&quot;&gt;Trimming&lt;/font&gt;" style="text;strokeColor=none;align=center;fillColor=none;html=1;verticalAlign=middle;whiteSpace=wrap;rounded=0;" parent="1" vertex="1">
          <mxGeometry x="146" y="736" width="60" height="30" as="geometry" />
        </mxCell>
        <mxCell id="f0s2tuys1uaE-3mfgcDq-75" value="" style="endArrow=none;html=1;rounded=1;strokeWidth=2;strokeColor=#7EB2DD;" parent="1" source="f0s2tuys1uaE-3mfgcDq-77" edge="1">
          <mxGeometry width="50" height="50" relative="1" as="geometry">
            <mxPoint x="188" y="714" as="sourcePoint" />
            <mxPoint x="247" y="714" as="targetPoint" />
          </mxGeometry>
        </mxCell>
        <mxCell id="f0s2tuys1uaE-3mfgcDq-78" value="" style="endArrow=none;html=1;rounded=1;strokeWidth=2;strokeColor=#7EB2DD;" parent="1" target="f0s2tuys1uaE-3mfgcDq-77" edge="1">
          <mxGeometry width="50" height="50" relative="1" as="geometry">
            <mxPoint x="188" y="714" as="sourcePoint" />
            <mxPoint x="247" y="714" as="targetPoint" />
          </mxGeometry>
        </mxCell>
        <mxCell id="f0s2tuys1uaE-3mfgcDq-77" value="" style="ellipse;whiteSpace=wrap;html=1;aspect=fixed;rounded=1;rotation=0;strokeWidth=2;fillColor=#3584e4;strokeColor=#62a0ea;" parent="1" vertex="1">
          <mxGeometry x="235" y="706" width="16" height="16" as="geometry" />
        </mxCell>
        <mxCell id="f0s2tuys1uaE-3mfgcDq-79" value="&lt;font style=&quot;font-size: 14px;&quot; color=&quot;#ffffff&quot;&gt;ToulliqQC&lt;/font&gt;" style="text;strokeColor=none;align=center;fillColor=none;html=1;verticalAlign=middle;whiteSpace=wrap;rounded=0;" parent="1" vertex="1">
          <mxGeometry x="213" y="665" width="60" height="30" as="geometry" />
        </mxCell>
        <mxCell id="f0s2tuys1uaE-3mfgcDq-80" value="" style="endArrow=none;html=1;rounded=1;strokeWidth=2;strokeColor=#24B064;exitX=1;exitY=0.5;exitDx=0;exitDy=0;entryX=0;entryY=0.5;entryDx=0;entryDy=0;" parent="1" source="f0s2tuys1uaE-3mfgcDq-77" target="f0s2tuys1uaE-3mfgcDq-83" edge="1">
          <mxGeometry width="50" height="50" relative="1" as="geometry">
            <mxPoint x="370" y="531" as="sourcePoint" />
            <mxPoint x="297" y="714" as="targetPoint" />
          </mxGeometry>
        </mxCell>
        <mxCell id="f0s2tuys1uaE-3mfgcDq-83" value="" style="ellipse;whiteSpace=wrap;html=1;aspect=fixed;rounded=1;rotation=0;strokeWidth=2;fillColor=#33d17a;strokeColor=#57e389;" parent="1" vertex="1">
          <mxGeometry x="300" y="706" width="16" height="16" as="geometry" />
        </mxCell>
        <mxCell id="f0s2tuys1uaE-3mfgcDq-84" value="&lt;font style=&quot;font-size: 14px;&quot; color=&quot;#ffffff&quot;&gt;Flye&lt;/font&gt;" style="text;strokeColor=none;align=center;fillColor=none;html=1;verticalAlign=middle;whiteSpace=wrap;rounded=0;" parent="1" vertex="1">
          <mxGeometry x="278" y="736" width="60" height="30" as="geometry" />
        </mxCell>
        <mxCell id="f0s2tuys1uaE-3mfgcDq-85" value="" style="endArrow=none;html=1;rounded=1;strokeWidth=2;strokeColor=#24B064;exitX=1;exitY=0.5;exitDx=0;exitDy=0;entryX=0;entryY=0.5;entryDx=0;entryDy=0;" parent="1" source="f0s2tuys1uaE-3mfgcDq-83" target="f0s2tuys1uaE-3mfgcDq-86" edge="1">
          <mxGeometry width="50" height="50" relative="1" as="geometry">
            <mxPoint x="370" y="651" as="sourcePoint" />
            <mxPoint x="354" y="714" as="targetPoint" />
          </mxGeometry>
        </mxCell>
        <mxCell id="f0s2tuys1uaE-3mfgcDq-86" value="" style="ellipse;whiteSpace=wrap;html=1;aspect=fixed;rounded=1;rotation=0;strokeWidth=2;fillColor=#33d17a;strokeColor=#57e389;" parent="1" vertex="1">
          <mxGeometry x="366" y="706" width="16" height="16" as="geometry" />
        </mxCell>
        <mxCell id="f0s2tuys1uaE-3mfgcDq-87" value="&lt;font style=&quot;font-size: 14px;&quot; color=&quot;#ffffff&quot;&gt;Medaka&lt;/font&gt;" style="text;strokeColor=none;align=center;fillColor=none;html=1;verticalAlign=middle;whiteSpace=wrap;rounded=0;" parent="1" vertex="1">
          <mxGeometry x="344" y="665" width="60" height="30" as="geometry" />
        </mxCell>
        <mxCell id="fkLiBk1pGBz07GGvYYkv-2" value="" style="endArrow=none;html=1;rounded=1;strokeWidth=2;strokeColor=#24B064;exitX=1;exitY=0.5;exitDx=0;exitDy=0;entryX=0;entryY=0.5;entryDx=0;entryDy=0;" parent="1" edge="1">
          <mxGeometry width="50" height="50" relative="1" as="geometry">
            <mxPoint x="382" y="713.5" as="sourcePoint" />
            <mxPoint x="432" y="713.5" as="targetPoint" />
          </mxGeometry>
        </mxCell>
        <mxCell id="fkLiBk1pGBz07GGvYYkv-5" value="Text" style="text;html=1;align=center;verticalAlign=middle;resizable=0;points=[];autosize=1;strokeColor=none;fillColor=none;" parent="1" vertex="1">
          <mxGeometry x="189" y="439" width="40" height="26" as="geometry" />
        </mxCell>
        <mxCell id="fkLiBk1pGBz07GGvYYkv-6" value="" style="ellipse;whiteSpace=wrap;html=1;aspect=fixed;rounded=1;rotation=0;strokeWidth=2;fillColor=#33d17a;strokeColor=#57E389;" parent="1" vertex="1">
          <mxGeometry x="432" y="706" width="16" height="16" as="geometry" />
        </mxCell>
        <mxCell id="fkLiBk1pGBz07GGvYYkv-7" value="&lt;div&gt;&lt;font style=&quot;font-size: 14px;&quot; color=&quot;#ffffff&quot;&gt;Homopolish ou pepper&lt;/font&gt;&lt;/div&gt;" style="text;strokeColor=none;align=center;fillColor=none;html=1;verticalAlign=middle;whiteSpace=wrap;rounded=0;" parent="1" vertex="1">
          <mxGeometry x="410" y="740" width="60" height="30" as="geometry" />
        </mxCell>
        <mxCell id="fkLiBk1pGBz07GGvYYkv-9" value="" style="group" parent="1" vertex="1" connectable="0">
          <mxGeometry x="18" y="545" width="47" height="65" as="geometry" />
        </mxCell>
        <mxCell id="fkLiBk1pGBz07GGvYYkv-10" value="" style="shape=note;whiteSpace=wrap;html=1;backgroundOutline=1;darkOpacity=0.05;rounded=1;size=20;strokeWidth=2;" parent="fkLiBk1pGBz07GGvYYkv-9" vertex="1">
          <mxGeometry x="2.611111111111111" width="41.77777777777778" height="65" as="geometry" />
        </mxCell>
        <mxCell id="fkLiBk1pGBz07GGvYYkv-11" value="&lt;div align=&quot;center&quot;&gt;&lt;font style=&quot;font-size: 14px;&quot; color=&quot;#ffffff&quot; face=&quot;Maven Pro&quot;&gt;&lt;b&gt;Reference genome&lt;/b&gt;&lt;/font&gt;&lt;br&gt;&lt;/div&gt;" style="rounded=1;whiteSpace=wrap;html=1;strokeWidth=2;fillColor=#000000;align=center;" parent="fkLiBk1pGBz07GGvYYkv-9" vertex="1">
          <mxGeometry y="26" width="47" height="26" as="geometry" />
        </mxCell>
        <mxCell id="fkLiBk1pGBz07GGvYYkv-14" value="" style="ellipse;whiteSpace=wrap;html=1;aspect=fixed;rounded=1;rotation=0;strokeWidth=2;fillColor=#33d17a;strokeColor=#57e389;" parent="1" vertex="1">
          <mxGeometry x="432" y="577" width="16" height="16" as="geometry" />
        </mxCell>
        <mxCell id="fkLiBk1pGBz07GGvYYkv-15" value="&lt;font style=&quot;font-size: 14px;&quot; color=&quot;#ffffff&quot;&gt;Quast &lt;br&gt;+ &lt;br&gt;Busco&lt;br&gt;&lt;/font&gt;" style="text;strokeColor=none;align=center;fillColor=none;html=1;verticalAlign=middle;whiteSpace=wrap;rounded=0;" parent="1" vertex="1">
          <mxGeometry x="410" y="529" width="60" height="30" as="geometry" />
        </mxCell>
        <mxCell id="fkLiBk1pGBz07GGvYYkv-17" value="&lt;font style=&quot;font-size: 14px;&quot; color=&quot;#ffffff&quot;&gt;Avec ou sans génome de référence&lt;br&gt;&lt;/font&gt;" style="text;strokeColor=none;align=center;fillColor=none;html=1;verticalAlign=middle;whiteSpace=wrap;rounded=0;" parent="1" vertex="1">
          <mxGeometry x="126" y="549" width="256" height="30" as="geometry" />
        </mxCell>
        <mxCell id="fkLiBk1pGBz07GGvYYkv-57" value="" style="rounded=0;whiteSpace=wrap;html=1;strokeColor=#FFFFFF;strokeWidth=2;fillColor=#000000;" parent="1" vertex="1">
          <mxGeometry x="535" y="613" width="10" height="202" as="geometry" />
        </mxCell>
        <mxCell id="fkLiBk1pGBz07GGvYYkv-59" value="" style="ellipse;whiteSpace=wrap;html=1;aspect=fixed;rounded=1;rotation=0;strokeWidth=2;fillColor=#33d17a;strokeColor=#57E389;" parent="1" vertex="1">
          <mxGeometry x="532" y="605" width="16" height="16" as="geometry" />
        </mxCell>
        <mxCell id="fkLiBk1pGBz07GGvYYkv-60" value="" style="ellipse;whiteSpace=wrap;html=1;aspect=fixed;rounded=1;rotation=0;strokeWidth=2;fillColor=#FF7800;strokeColor=#FFA348;" parent="1" vertex="1">
          <mxGeometry x="532" y="672" width="16" height="16" as="geometry" />
        </mxCell>
        <mxCell id="fkLiBk1pGBz07GGvYYkv-61" value="" style="ellipse;whiteSpace=wrap;html=1;aspect=fixed;rounded=1;rotation=0;strokeWidth=2;fillColor=#986A44;strokeColor=#B5835A;" parent="1" vertex="1">
          <mxGeometry x="532" y="805" width="16" height="16" as="geometry" />
        </mxCell>
        <mxCell id="fkLiBk1pGBz07GGvYYkv-63" value="" style="ellipse;whiteSpace=wrap;html=1;aspect=fixed;rounded=1;rotation=0;strokeWidth=2;fillColor=#986A44;strokeColor=#B5835A;" parent="1" vertex="1">
          <mxGeometry x="532" y="743" width="16" height="16" as="geometry" />
        </mxCell>
        <mxCell id="fkLiBk1pGBz07GGvYYkv-68" value="&lt;font style=&quot;font-size: 14px;&quot; color=&quot;#ffffff&quot;&gt;Prokka&lt;/font&gt;" style="text;strokeColor=none;align=center;fillColor=none;html=1;verticalAlign=middle;whiteSpace=wrap;rounded=0;" parent="1" vertex="1">
          <mxGeometry x="559" y="598" width="60" height="30" as="geometry" />
        </mxCell>
        <mxCell id="fkLiBk1pGBz07GGvYYkv-69" value="" style="endArrow=none;html=1;rounded=1;strokeWidth=2;strokeColor=#FF7800;exitX=1;exitY=0.5;exitDx=0;exitDy=0;" parent="1" source="fkLiBk1pGBz07GGvYYkv-60" edge="1">
          <mxGeometry width="50" height="50" relative="1" as="geometry">
            <mxPoint x="588" y="688" as="sourcePoint" />
            <mxPoint x="633" y="680" as="targetPoint" />
            <Array as="points">
              <mxPoint x="585" y="680" />
            </Array>
          </mxGeometry>
        </mxCell>
        <mxCell id="fkLiBk1pGBz07GGvYYkv-70" value="&lt;font style=&quot;font-size: 14px;&quot; color=&quot;#ffffff&quot;&gt;ResFinder&lt;/font&gt;" style="text;strokeColor=none;align=center;fillColor=none;html=1;verticalAlign=middle;whiteSpace=wrap;rounded=0;" parent="1" vertex="1">
          <mxGeometry x="570" y="745" width="60" height="16" as="geometry" />
        </mxCell>
        <mxCell id="fkLiBk1pGBz07GGvYYkv-71" value="&lt;font style=&quot;font-size: 14px;&quot; color=&quot;#ffffff&quot;&gt;AMRFinderPlus&lt;/font&gt;" style="text;strokeColor=none;align=center;fillColor=none;html=1;verticalAlign=middle;whiteSpace=wrap;rounded=0;" parent="1" vertex="1">
          <mxGeometry x="586" y="798" width="60" height="30" as="geometry" />
        </mxCell>
        <mxCell id="fkLiBk1pGBz07GGvYYkv-72" value="" style="group" parent="1" vertex="1" connectable="0">
          <mxGeometry x="630" y="654" width="20" height="67" as="geometry" />
        </mxCell>
        <mxCell id="fkLiBk1pGBz07GGvYYkv-77" value="" style="rounded=0;whiteSpace=wrap;html=1;strokeColor=#FFFFFF;strokeWidth=2;fillColor=#000000;" parent="fkLiBk1pGBz07GGvYYkv-72" vertex="1">
          <mxGeometry x="5" y="-3" width="10" height="54" as="geometry" />
        </mxCell>
        <mxCell id="fkLiBk1pGBz07GGvYYkv-78" value="" style="ellipse;whiteSpace=wrap;html=1;aspect=fixed;rounded=1;rotation=0;strokeWidth=2;fillColor=#FF7800;strokeColor=#FFA348;" parent="fkLiBk1pGBz07GGvYYkv-72" vertex="1">
          <mxGeometry x="2" y="49" width="16" height="16" as="geometry" />
        </mxCell>
        <mxCell id="fkLiBk1pGBz07GGvYYkv-73" value="" style="ellipse;whiteSpace=wrap;html=1;aspect=fixed;rounded=1;rotation=0;strokeWidth=2;fillColor=#FF7800;strokeColor=#FFA348;" parent="1" vertex="1">
          <mxGeometry x="632" y="642" width="16" height="16" as="geometry" />
        </mxCell>
        <mxCell id="fkLiBk1pGBz07GGvYYkv-75" style="edgeStyle=orthogonalEdgeStyle;rounded=1;orthogonalLoop=1;jettySize=auto;html=1;exitX=0;exitY=1;exitDx=0;exitDy=0;entryX=0;entryY=0;entryDx=0;entryDy=0;strokeWidth=2;endArrow=none;endFill=0;" parent="1" source="fkLiBk1pGBz07GGvYYkv-73" edge="1">
          <mxGeometry relative="1" as="geometry">
            <mxPoint x="632.9289321881345" y="703.9289321881345" as="targetPoint" />
            <Array as="points">
              <mxPoint x="633" y="656" />
            </Array>
          </mxGeometry>
        </mxCell>
        <mxCell id="fkLiBk1pGBz07GGvYYkv-76" style="edgeStyle=orthogonalEdgeStyle;rounded=1;orthogonalLoop=1;jettySize=auto;html=1;exitX=1;exitY=1;exitDx=0;exitDy=0;entryX=1;entryY=0;entryDx=0;entryDy=0;endArrow=none;endFill=0;strokeWidth=2;" parent="1" source="fkLiBk1pGBz07GGvYYkv-73" edge="1">
          <mxGeometry relative="1" as="geometry">
            <mxPoint x="647.0710678118655" y="703.9289321881345" as="targetPoint" />
            <Array as="points">
              <mxPoint x="647" y="656" />
            </Array>
          </mxGeometry>
        </mxCell>
        <mxCell id="fkLiBk1pGBz07GGvYYkv-80" value="&lt;font style=&quot;font-size: 14px;&quot; color=&quot;#ffffff&quot;&gt;Taxonkit&lt;/font&gt;" style="text;strokeColor=none;align=center;fillColor=none;html=1;verticalAlign=middle;whiteSpace=wrap;rounded=0;" parent="1" vertex="1">
          <mxGeometry x="657" y="635" width="60" height="30" as="geometry" />
        </mxCell>
        <mxCell id="fkLiBk1pGBz07GGvYYkv-81" value="&lt;font style=&quot;font-size: 14px;&quot; color=&quot;#ffffff&quot;&gt;Mashtree + phyviztree&lt;br&gt;&lt;/font&gt;" style="text;strokeColor=none;align=center;fillColor=none;html=1;verticalAlign=middle;whiteSpace=wrap;rounded=0;" parent="1" vertex="1">
          <mxGeometry x="659" y="696" width="61" height="31" as="geometry" />
        </mxCell>
        <mxCell id="fkLiBk1pGBz07GGvYYkv-83" value="&lt;font style=&quot;font-size: 16px;&quot; color=&quot;#ffffff&quot;&gt;&lt;b&gt;Protocols&lt;/b&gt;&lt;/font&gt;" style="text;strokeColor=none;align=center;fillColor=none;html=1;verticalAlign=middle;whiteSpace=wrap;rounded=0;" parent="1" vertex="1">
          <mxGeometry x="18" y="842" width="60" height="30" as="geometry" />
        </mxCell>
        <mxCell id="fkLiBk1pGBz07GGvYYkv-84" value="" style="endArrow=none;html=1;rounded=1;strokeWidth=2;strokeColor=#7EB2DD;" parent="1" edge="1">
          <mxGeometry width="50" height="50" relative="1" as="geometry">
            <mxPoint x="78" y="902" as="sourcePoint" />
            <mxPoint x="14.5" y="902" as="targetPoint" />
          </mxGeometry>
        </mxCell>
        <mxCell id="fkLiBk1pGBz07GGvYYkv-85" value="" style="endArrow=none;html=1;rounded=1;strokeWidth=2;strokeColor=#24B064;exitX=1;exitY=0.5;exitDx=0;exitDy=0;" parent="1" edge="1">
          <mxGeometry width="50" height="50" relative="1" as="geometry">
            <mxPoint x="14" y="971" as="sourcePoint" />
            <mxPoint x="78" y="971" as="targetPoint" />
          </mxGeometry>
        </mxCell>
        <mxCell id="fkLiBk1pGBz07GGvYYkv-87" value="" style="endArrow=none;html=1;rounded=1;strokeWidth=2;strokeColor=#FF7800;" parent="1" edge="1">
          <mxGeometry width="50" height="50" relative="1" as="geometry">
            <mxPoint x="246" y="899.5" as="sourcePoint" />
            <mxPoint x="316" y="899.5" as="targetPoint" />
            <Array as="points">
              <mxPoint x="291" y="899.5" />
            </Array>
          </mxGeometry>
        </mxCell>
        <mxCell id="fkLiBk1pGBz07GGvYYkv-88" value="" style="endArrow=none;html=1;rounded=1;strokeWidth=2;strokeColor=#986A44;" parent="1" edge="1">
          <mxGeometry width="50" height="50" relative="1" as="geometry">
            <mxPoint x="249" y="970.5" as="sourcePoint" />
            <mxPoint x="319" y="970.5" as="targetPoint" />
            <Array as="points">
              <mxPoint x="294" y="970.5" />
            </Array>
          </mxGeometry>
        </mxCell>
        <mxCell id="fkLiBk1pGBz07GGvYYkv-89" value="&lt;font style=&quot;font-size: 14px;&quot; color=&quot;#ffffff&quot;&gt;Contrôle qualité&lt;br&gt;&lt;/font&gt;" style="text;strokeColor=none;align=center;fillColor=none;html=1;verticalAlign=middle;whiteSpace=wrap;rounded=0;" parent="1" vertex="1">
          <mxGeometry x="89" y="885" width="60" height="30" as="geometry" />
        </mxCell>
        <mxCell id="fkLiBk1pGBz07GGvYYkv-90" value="&lt;font style=&quot;font-size: 14px;&quot; color=&quot;#ffffff&quot;&gt;Assemblage&lt;/font&gt;" style="text;strokeColor=none;align=center;fillColor=none;html=1;verticalAlign=middle;whiteSpace=wrap;rounded=0;" parent="1" vertex="1">
          <mxGeometry x="92" y="956" width="60" height="30" as="geometry" />
        </mxCell>
        <mxCell id="fkLiBk1pGBz07GGvYYkv-91" value="&lt;font style=&quot;font-size: 14px;&quot; color=&quot;#ffffff&quot;&gt;Blast et phylogénie&lt;br&gt;&lt;/font&gt;" style="text;strokeColor=none;align=center;fillColor=none;html=1;verticalAlign=middle;whiteSpace=wrap;rounded=0;" parent="1" vertex="1">
          <mxGeometry x="324" y="883" width="133" height="30" as="geometry" />
        </mxCell>
        <mxCell id="fkLiBk1pGBz07GGvYYkv-92" value="&lt;font style=&quot;font-size: 14px;&quot; color=&quot;#ffffff&quot;&gt;Antibiorésistance&lt;/font&gt;" style="text;strokeColor=none;align=center;fillColor=none;html=1;verticalAlign=middle;whiteSpace=wrap;rounded=0;" parent="1" vertex="1">
          <mxGeometry x="317" y="956" width="133" height="30" as="geometry" />
        </mxCell>
        <mxCell id="fkLiBk1pGBz07GGvYYkv-93" value="" style="endArrow=classic;html=1;rounded=0;" parent="1" edge="1">
          <mxGeometry width="50" height="50" relative="1" as="geometry">
            <mxPoint x="603" y="944" as="sourcePoint" />
            <mxPoint x="657" y="899" as="targetPoint" />
          </mxGeometry>
        </mxCell>
        <mxCell id="fkLiBk1pGBz07GGvYYkv-94" value="" style="endArrow=classic;html=1;rounded=0;" parent="1" edge="1">
          <mxGeometry width="50" height="50" relative="1" as="geometry">
            <mxPoint x="644" y="801" as="sourcePoint" />
            <mxPoint x="694" y="751" as="targetPoint" />
          </mxGeometry>
        </mxCell>
        <mxCell id="fkLiBk1pGBz07GGvYYkv-95" value="" style="endArrow=classic;html=1;rounded=0;exitX=0.5;exitY=0;exitDx=0;exitDy=0;entryX=0.5;entryY=1;entryDx=0;entryDy=0;strokeColor=#57E389;" parent="1" source="fkLiBk1pGBz07GGvYYkv-6" target="fkLiBk1pGBz07GGvYYkv-14" edge="1">
          <mxGeometry width="50" height="50" relative="1" as="geometry">
            <mxPoint x="644" y="801" as="sourcePoint" />
            <mxPoint x="694" y="751" as="targetPoint" />
          </mxGeometry>
        </mxCell>
        <mxCell id="fkLiBk1pGBz07GGvYYkv-96" value="" style="endArrow=classic;html=1;rounded=0;exitX=1;exitY=0.5;exitDx=0;exitDy=0;entryX=0;entryY=0.5;entryDx=0;entryDy=0;strokeColor=#57E389;" parent="1" source="fkLiBk1pGBz07GGvYYkv-11" target="fkLiBk1pGBz07GGvYYkv-14" edge="1">
          <mxGeometry width="50" height="50" relative="1" as="geometry">
            <mxPoint x="645" y="801" as="sourcePoint" />
            <mxPoint x="695" y="751" as="targetPoint" />
          </mxGeometry>
        </mxCell>
        <mxCell id="fkLiBk1pGBz07GGvYYkv-97" value="" style="endArrow=classic;html=1;rounded=0;exitX=1;exitY=0.5;exitDx=0;exitDy=0;entryX=0;entryY=0.5;entryDx=0;entryDy=0;strokeColor=#57E389;" parent="1" source="fkLiBk1pGBz07GGvYYkv-6" target="fkLiBk1pGBz07GGvYYkv-57" edge="1">
          <mxGeometry width="50" height="50" relative="1" as="geometry">
            <mxPoint x="450" y="716" as="sourcePoint" />
            <mxPoint x="450" y="603" as="targetPoint" />
          </mxGeometry>
        </mxCell>
        <mxCell id="A4uF3mr7Px6pYlMuir4M-2" value="&lt;font style=&quot;font-size: 14px;&quot; color=&quot;#ffffff&quot;&gt;Blastn&lt;/font&gt;" style="text;strokeColor=none;align=center;fillColor=none;html=1;verticalAlign=middle;whiteSpace=wrap;rounded=0;" vertex="1" parent="1">
          <mxGeometry x="467" y="663" width="60" height="30" as="geometry" />
        </mxCell>
      </root>
    </mxGraphModel>
  </diagram>
</mxfile>
